<svg width="90" height="35" viewBox="0 0 90 35" fill="none" xmlns="http://www.w3.org/2000/svg">
<path fill-rule="evenodd" clip-rule="evenodd" d="M17.9159 32.8318C26.1537 32.8318 32.8318 26.1537 32.8318 17.9159C32.8318 9.67807 26.1537 3 17.9159 3C9.67807 3 3 9.67807 3 17.9159C3 26.1537 9.67807 32.8318 17.9159 32.8318ZM7.12149 10.8505H17.3271V13.4019L17.3271 28.3178H14.7757V13.4019H7.12149V10.8505ZM18.5047 10.8505H28.6121V13.4019H18.5047V10.8505ZM28.6121 14.5795H18.5047V17.1309H28.6121V14.5795ZM21.0561 20.8598V28.4159H18.5047L18.5047 20.8598H18.5047V18.3084H18.5047H21.0561H28.6121V20.8598H21.0561Z" fill="#002060"/>
<path fill-rule="evenodd" clip-rule="evenodd" d="M48.3364 10.8505H34.0093V13.0093H39.8972L39.8972 29.2991H42.4486L42.4486 13.0093H48.3364V10.8505Z" fill="#002060"/>
<path fill-rule="evenodd" clip-rule="evenodd" d="M43.2337 13.9907H53.6355V15.757H45.3925L45.3925 20.4673H52.458V22.2337H45.3925L45.3925 29.2991H43.2336L43.2336 13.9907H43.2337V13.9907Z" fill="#002060"/>
<path fill-rule="evenodd" clip-rule="evenodd" d="M56.1869 27.3364L56.1869 13.9907L54.028 13.9907L54.028 29.2991H56.1869V29.299L63.6449 29.299V27.3364L56.1869 27.3364Z" fill="#002060"/>
<path fill-rule="evenodd" clip-rule="evenodd" d="M66.1963 15.757L76.0093 15.757V13.9907L64.0374 13.9907L64.0374 15.757H64.0374L64.0374 20.4673H64.0374L64.0374 22.4299H64.0374L64.0374 27.3364H64.0374L64.0374 29.299H64.0374L64.0374 29.2991H66.1963V29.299L75.6168 29.2991V27.3364L66.1963 27.3364L66.1963 22.4299L75.6168 22.4299V20.4673L66.1963 20.4673L66.1963 15.757Z" fill="#002060"/>
<path d="M78.9533 21.2472L73.7523 13.9907H76.1075L80.0327 19.7562L84.4486 13.9907H86.5094L81.3084 21.2472L87 29.2991H84.4486L80.0327 22.8377L75.6168 29.2991H73.0654L78.9533 21.2472Z" fill="#002060"/>
</svg>
